<?xml version="1.0" encoding="UTF-8"?>
<svg width="500" height="500" viewBox="0 0 500 500" xmlns="http://www.w3.org/2000/svg">
  <path id="27" d="M 228.500,414.899 C 201.344,412.066 172.086,401.013 150.046,385.258 C 115.398,360.492 92.297,325.737 82.397,283.484 C 79.756,272.214 79.587,270.130 79.556,248.500 C 79.526,228.153 79.788,224.289 81.818,215 C 91.839,169.155 117.478,131.777 156.112,106.688 C 219.281,65.667 303.277,72.879 359.950,124.190 C 385.111,146.970 403.539,179.370 411.066,214.061 C 414.488,229.833 414.973,258.969 412.095,275.913 C 404.345,321.542 378.283,361.617 339.499,387.538 C 306.628,409.508 268.027,419.022 228.500,414.899M 236.393,388.418 C 236.727,387.548 237,384.398 237,381.418 C 237,377.261 237.485,375.515 239.083,373.917 C 242.255,370.745 242.320,370.962 242.884,386.750 C 242.884,386.750 243,390 243,390 C 243,390 249.500,390 249.500,390 C 249.500,390 256,390 256,390 C 256,390 256,368.552 256,368.552 C 256,347.387 255.968,347.070 253.635,344.552 C 251.518,342.267 250.510,342 244,342 C 237.490,342 236.482,342.267 234.365,344.552 C 233.064,345.955 232,347.530 232,348.052 C 230.256,348.633 225.340,354.439 224.500,355 C 223.224,355 223,357.611 223,372.500 C 223,372.500 223,390 223,390 C 223,390 229.393,390 229.393,390 C 234.300,390 235.927,389.632 236.393,388.418M 276.768,366.250 C 276.768,366.250 276.500,342.500 276.500,342.500 C 276.500,342.500 270,342.500 270,342.500 C 270,342.500 263.500,342.500 263.500,342.500 C 263.500,342.500 263.230,364.977 263.230,364.977 C 263.082,377.340 263.180,388.027 263.449,388.727 C 263.776,389.578 266.108,390 270.487,390 C 270.487,390 277.036,390 277.036,390 C 277.036,390 276.768,366.250 276.768,366.250M 283.081,314.957 C 298.011,306.049 300.650,304.091 308.750,295.916 C 316.697,287.895 317.667,285.138 313.504,282.411 C 309.007,279.465 299.663,282.628 292.949,289.370 C 290.996,291.331 287.733,293.631 285.699,294.481 C 283.665,295.331 282,296.634 282,297.377 C 282,298.120 280.814,299.914 279.364,301.364 C 276.090,304.638 273.922,304.686 252.500,301.962 C 233.385,299.531 233,299.430 233,296.809 C 233,294.450 232.374,294.431 258.677,297.560 C 275.761,299.592 277.358,299.247 276.801,293.634 C 276.385,289.437 272.693,287.529 259.235,284.552 C 252.338,283.027 245.380,280.703 240.824,278.404 C 234.416,275.170 232.371,274.648 224.481,274.230 C 214.295,273.690 206.666,275.362 192.329,281.279 C 178.277,287.078 178.580,285.110 189.021,302.750 C 193.985,311.138 198.598,317.984 199.273,317.965 C 199.948,317.945 201.625,317.286 203,316.500 C 206.597,314.444 210.669,314.647 231.717,317.930 C 269.243,323.784 268.186,323.845 283.081,314.957M 290.617,284.511 C 297.031,279.397 304.007,276 308.097,276 C 310.116,276 312.978,271.696 315.897,264.273 C 315.897,264.273 317.952,259.047 317.952,259.047 C 317.952,259.047 300.726,258.773 300.726,258.773 C 283.771,258.504 283.495,258.465 283.183,256.273 C 282.867,254.048 282.884,254.046 301.183,253.773 C 301.183,253.773 319.500,253.500 319.500,253.500 C 319.500,253.500 319.802,248.250 319.802,248.250 C 319.802,248.250 320.105,243 320.105,243 C 320.105,243 269.052,243 269.052,243 C 269.052,243 218,243 218,243 C 218,243 218.014,246.250 218.014,246.250 C 218.048,254.283 217.216,253.922 236.361,254.227 C 252.743,254.488 253.500,254.588 253.500,256.500 C 253.500,258.400 252.666,258.525 236.868,259 C 236.868,259 220.237,259.500 220.237,259.500 C 220.237,259.500 221.997,264 221.997,264 C 223.742,268.463 223.804,268.506 229.628,269.238 C 233.171,269.683 238.078,271.317 242,273.357 C 245.766,275.316 253.252,277.848 259.799,279.376 C 273.620,282.603 277.208,284.049 279.626,287.366 C 280.657,288.780 282.003,289.952 282.617,289.969 C 283.231,289.986 286.831,287.530 290.617,284.511M 233,236.066 C 233,235.251 224.533,228.428 207.673,215.656 C 202.253,211.550 199.145,211.077 196.536,213.960 C 193.334,217.498 195.224,219.985 207.731,228.697 C 207.731,228.697 219.500,236.894 219.500,236.894 C 219.500,236.894 226.250,236.947 226.250,236.947 C 229.962,236.976 233,236.580 233,236.066M 254.200,233.954 C 256.930,231.224 257.198,230.417 256.790,226.168 C 256.480,222.937 255.132,219.547 252.558,215.523 C 249.242,210.339 248.852,209.098 249.365,205.353 C 250.116,199.872 248.752,199.094 244.989,202.857 C 240.525,207.321 240.832,212.417 246.100,221.284 C 249.785,227.487 250.132,228.631 249.538,232.593 C 248.738,237.927 249.891,238.263 254.200,233.954M 273.853,232.459 C 278.497,226.555 277.652,221.500 269.879,208.702 C 267.196,204.284 265,200.055 265,199.303 C 265,198.551 265.685,196.296 266.523,194.291 C 268.578,189.372 266.989,187.738 263.384,191.063 C 256.801,197.134 256.755,204.224 263.232,214.224 C 269.619,224.085 270.275,226.173 268.557,231.159 C 267.760,233.473 267.336,235.735 267.615,236.186 C 268.334,237.349 271.491,235.462 273.853,232.459M 292.750,233.677 C 296.486,230.314 295.853,224.053 290.942,215.786 C 287.278,209.619 286.950,208.521 287.556,204.478 C 288.311,199.442 287.570,198.977 283.672,202.043 C 280.923,204.205 279.381,209.406 280.350,213.243 C 280.663,214.484 282.554,218.200 284.551,221.500 C 287.646,226.614 288.101,228.108 287.628,231.620 C 286.819,237.635 287.880,238.061 292.750,233.677M 163.977,202.036 C 165.729,199.306 166.904,196.654 166.589,196.144 C 166.274,195.634 162.637,193.111 158.508,190.537 C 154.379,187.963 151,185.431 151,184.909 C 151,184.387 152.152,182.135 153.560,179.905 C 155.587,176.694 155.874,175.553 154.938,174.425 C 152.881,171.946 150.443,172.866 148.120,177 C 146.884,179.200 145.369,181 144.754,181 C 142.754,181 131.035,173.536 131.017,172.250 C 130.993,170.559 133.091,170.675 141.023,172 C 142.102,172 144.025,170.386 145.457,168.278 C 148.342,164.032 148.228,163.817 140.874,159.605 C 140.874,159.605 136.249,156.956 136.249,156.956 C 136.249,156.956 128.874,168.728 128.874,168.728 C 124.818,175.203 121.500,181.123 121.500,181.885 C 121.500,183.232 157.354,206.764 159.646,206.921 C 160.276,206.964 162.225,204.766 163.977,202.036M 345.619,181.072 C 345.539,179.482 344.612,177.230 346.486,173.987 C 350.240,177.514 353.202,177.145 358.577,172.482 C 363.001,168.644 363.294,168.082 363.532,162.946 C 363.532,162.946 363.785,157.489 363.785,157.489 C 363.785,157.489 355.043,148.046 355.043,148.046 C 355.043,148.046 346.301,138.604 346.301,138.604 C 346.301,138.604 329.150,153.895 329.150,153.895 C 319.717,162.305 312,169.726 312,170.385 C 312,171.044 313.935,173.483 316.301,175.805 C 316.301,175.805 320.603,180.027 320.603,180.027 C 320.603,180.027 327.860,173.490 327.860,173.490 C 331.851,169.895 335.489,167.184 335.943,167.465 C 336.397,167.746 336.666,169.285 336.540,170.886 C 336.374,172.993 334.692,175.305 330.445,179.258 C 330.445,179.258 324.578,184.718 324.578,184.718 C 324.578,184.718 328.883,189.861 328.883,189.861 C 328.883,189.861 333.189,195.003 333.189,195.003 C 333.189,195.003 339.477,189.483 339.477,189.483 C 344.647,184.944 345.739,183.449 345.619,181.072M 198.809,164.436 C 198.979,164.314 199.302,162.767 199.526,160.997 C 199.823,158.649 199.234,156.862 197.348,154.389 C 195.926,152.525 194.373,151 193.897,151 C 193.421,151 191.608,152.272 189.869,153.826 C 186.244,157.065 185.288,161.556 186.176,167.406 C 185.254,166.254 179.140,158.492 172.589,150.156 C 166.038,141.820 160.374,135 160.003,135 C 158.893,135 150,142.199 150,143.098 C 150,143.958 172.361,172.445 176.750,177.176 C 176.750,177.176 179.233,179.852 179.233,179.852 C 179.233,179.852 188.866,172.255 188.866,172.255 C 194.165,168.076 198.639,164.558 198.809,164.436M 307.706,161.798 C 308.369,161.264 309.291,161.062 309.754,161.348 C 310.217,161.634 314.048,154.947 318.267,146.488 C 325.660,131.665 325.885,131.007 324.475,128.304 C 323.671,126.762 323.009,124.698 323.006,123.717 C 323.002,122.464 320.305,120.622 313.934,117.521 C 313.934,117.521 304.868,113.108 304.868,113.108 C 304.868,113.108 301.369,115.073 301.369,115.073 C 299.445,116.154 297.459,116.783 296.955,116.472 C 296.451,116.161 292.542,122.918 288.269,131.488 C 282.934,142.188 280.863,147.294 281.658,147.787 C 282.295,148.181 283.141,150.235 283.538,152.351 C 284.219,155.979 284.720,156.421 292.378,160.124 C 300.529,164.066 304.368,164.484 307.706,161.798M 212,157.882 C 214.314,157.189 216.448,155.998 216.740,155.236 C 217.032,154.474 216.440,151.103 215.423,147.746 C 214.039,143.175 213.879,141.541 214.787,141.238 C 215.454,141.016 216,139.933 216,138.833 C 216,134.834 218.409,137.781 220.681,144.559 C 221.961,148.376 223.211,152.046 223.459,152.714 C 223.797,153.625 224.732,153.666 227.205,152.878 C 234.094,150.684 236,149.716 236,148.411 C 236,147.670 234.287,141.762 232.194,135.282 C 230.101,128.802 227.288,120.015 225.944,115.755 C 224.184,110.177 223.033,108.009 221.833,108.005 C 220.916,108.002 219.983,107.451 219.760,106.781 C 219.463,105.889 217.098,106.259 210.933,108.164 C 202.786,110.681 202.485,110.883 201.657,114.383 C 201.186,116.373 200.396,118 199.901,118 C 199.204,119.791 196.283,125.346 196,126 C 194.354,126 194.789,128.123 199.615,143.651 C 204.873,160.568 204.761,160.305 206.497,159.639 C 207.209,159.366 209.686,158.575 212,157.882M 263.278,148.989 C 264.225,147.883 265,146.533 265,145.989 C 266,145.379 269.250,143.096 269.750,142.270 C 270.712,141.903 272.445,140.679 273.600,139.551 C 275.449,137.744 275.830,135.600 276.798,121.572 C 277.402,112.811 277.669,105.274 277.390,104.822 C 277.111,104.370 273.984,104 270.441,104 C 270.441,104 264,104 264,104 C 264,104 263.943,107.250 263.943,107.250 C 263.912,109.037 263.316,117.733 262.619,126.574 C 261.498,140.790 261.100,142.900 259.176,144.824 C 254.416,149.584 254.359,149.106 256.501,122.064 C 257.304,111.924 257.842,103.509 257.697,103.364 C 257.552,103.219 254.411,102.790 250.717,102.412 C 244.112,101.735 244,101.764 243.993,104.112 C 243.989,105.425 243.308,115.133 242.480,125.685 C 242.480,125.685 240.975,144.870 240.975,144.870 C 240.975,144.870 243.303,147.382 243.303,147.382 C 245.229,149.461 246.743,149.957 252.066,150.255 C 255.605,150.453 259.188,150.701 260.028,150.807 C 260.868,150.913 262.331,150.095 263.278,148.989" stroke="#895559" fill="#895559" stroke-width="1"/>
  <path id="26" d="M 257,321.707 C 253.425,321.241 242.048,319.541 231.717,317.930 C 210.669,314.647 206.597,314.444 203,316.500 C 201.625,317.286 199.948,317.945 199.273,317.965 C 198.598,317.984 193.985,311.138 189.021,302.750 C 178.580,285.110 178.277,287.078 192.329,281.279 C 206.666,275.362 214.295,273.690 224.481,274.230 C 232.371,274.648 234.416,275.170 240.824,278.404 C 245.380,280.703 252.338,283.027 259.235,284.552 C 272.693,287.529 276.385,289.437 276.801,293.634 C 277.358,299.247 275.761,299.592 258.677,297.560 C 232.374,294.431 233,294.450 233,296.809 C 233,299.430 233.385,299.531 252.500,301.962 C 273.922,304.686 276.090,304.638 279.364,301.364 C 280.814,299.914 282,298.120 282,297.377 C 282,296.634 283.665,295.331 285.699,294.481 C 287.733,293.631 290.996,291.331 292.949,289.370 C 299.663,282.628 309.007,279.465 313.504,282.411 C 317.667,285.138 316.697,287.895 308.750,295.916 C 300.650,304.091 298.011,306.049 283.081,314.957 C 271.427,321.910 267.119,323.026 257,321.707" stroke="#F9BDBF" fill="#F9BDBF" stroke-width="1"/>
  <path id="18" d="M 176.750,177.176 C 172.361,172.445 150,143.958 150,143.098 C 150,142.199 158.893,135 160.003,135 C 160.374,135 166.038,141.820 172.589,150.156 C 179.140,158.492 185.254,166.254 187.666,164.183 C 185.288,161.556 186.244,157.065 189.869,153.826 C 191.608,152.272 193.421,151 193.897,151 C 194.373,151 195.926,152.525 197.348,154.389 C 199.234,156.862 199.823,158.649 199.526,160.997 C 199.302,162.767 198.979,164.314 198.809,164.436 C 198.639,164.558 194.165,168.076 188.866,172.255 C 188.866,172.255 179.233,179.852 179.233,179.852 C 179.233,179.852 176.750,177.176 176.750,177.176" stroke="#E2A9EF" fill="#E2A9EF" stroke-width="1"/>
  <path id="18" d="M 140,195.057 C 129.825,188.575 121.500,182.647 121.500,181.885 C 121.500,181.123 124.818,175.203 128.874,168.728 C 128.874,168.728 136.249,156.956 136.249,156.956 C 136.249,156.956 140.874,159.605 140.874,159.605 C 148.228,163.817 148.342,164.032 145.457,168.278 C 144.025,170.386 142.102,172 135.712,172.511 C 133.091,170.675 130.993,170.559 131.017,172.250 C 131.035,173.536 142.754,181 144.754,181 C 145.369,181 146.884,179.200 148.120,177 C 150.443,172.866 152.881,171.946 154.938,174.425 C 155.874,175.553 155.587,176.694 153.560,179.905 C 152.152,182.135 151,184.387 151,184.909 C 151,185.431 154.379,187.963 158.508,190.537 C 162.637,193.111 166.274,195.634 166.589,196.144 C 167.344,197.366 161.124,207.023 159.646,206.921 C 159.016,206.878 150.175,201.539 140,195.057" stroke="#E2A9EF" fill="#E2A9EF" stroke-width="1"/>
  <path id="18" d="M 292.378,160.124 C 284.720,156.421 284.219,155.979 283.538,152.351 C 283.141,150.235 282.295,148.181 281.658,147.787 C 280.863,147.294 282.934,142.188 288.269,131.488 C 292.542,122.918 296.451,116.161 296.955,116.472 C 297.459,116.783 299.445,116.154 301.369,115.073 C 301.369,115.073 304.868,113.108 304.868,113.108 C 304.868,113.108 313.934,117.521 313.934,117.521 C 320.305,120.622 323.002,122.464 323.006,123.717 C 323.009,124.698 323.671,126.762 324.475,128.304 C 325.885,131.007 325.660,131.665 318.267,146.488 C 314.048,154.947 310.217,161.634 309.754,161.348 C 309.291,161.062 308.369,161.264 307.706,161.798 C 304.368,164.484 300.529,164.066 292.378,160.124M 295,156 C 295,155.450 295.854,155 296.897,155 C 299.758,155 313.186,127.180 312.348,122.989 C 312.019,121.345 311.176,120 310.474,120 C 308.988,120 291.740,154.770 292.564,156.104 C 293.313,157.315 295,157.243 295,156" stroke="#E2A9EF" fill="#E2A9EF" stroke-width="1"/>
  <path id="18" d="M 223,372.500 C 223,357.611 223.224,355 224.500,355 C 226.244,353.256 231.160,348.340 232,348.052 C 232,347.530 233.064,345.955 234.365,344.552 C 236.482,342.267 237.490,342 244,342 C 250.510,342 251.518,342.267 253.635,344.552 C 255.968,347.070 256,347.387 256,368.552 C 256,368.552 256,390 256,390 C 256,390 249.500,390 249.500,390 C 249.500,390 243,390 243,390 C 243,390 242.884,386.750 242.884,386.750 C 242.499,375.972 242.256,372.923 241.742,372.409 C 241.426,372.093 240.229,372.771 239.083,373.917 C 237.485,375.515 237,377.261 237,381.418 C 237,389.716 236.749,390 229.393,390 C 229.393,390 223,390 223,390 C 223,390 223,372.500 223,372.500M 240.485,366.750 C 242.063,364.910 242.420,362.918 242.448,355.824 C 242.467,351.052 242.186,346.853 241.824,346.491 C 241.462,346.129 240.156,346.844 238.921,348.079 C 236.357,350.643 235.357,357.231 236.439,364.444 C 237.214,369.609 237.764,369.923 240.485,366.750" stroke="#E2A9EF" fill="#E2A9EF" stroke-width="1"/>
  <path id="18" d="M 204.717,159.318 C 203.828,157.820 195,128.825 195,127.401 C 196.162,126.338 199.440,118.818 199.901,118 C 200.396,118 201.186,116.373 201.657,114.383 C 202.485,110.883 202.786,110.681 210.933,108.164 C 217.098,106.259 219.463,105.889 219.760,106.781 C 219.983,107.451 220.916,108.002 221.833,108.005 C 223.033,108.009 224.184,110.177 225.944,115.755 C 227.288,120.015 230.101,128.802 232.194,135.282 C 234.287,141.762 236,147.670 236,148.411 C 236,149.716 234.094,150.684 227.205,152.878 C 224.732,153.666 223.797,153.625 223.459,152.714 C 223.211,152.046 221.961,148.376 220.681,144.559 C 218.409,137.781 216,134.834 216,138.833 C 216,139.933 215.454,141.016 214.787,141.238 C 213.879,141.541 214.039,143.175 215.423,147.746 C 216.440,151.103 217.032,154.474 216.740,155.236 C 216.448,155.998 214.314,157.189 212,157.882 C 209.686,158.575 207.209,159.366 206.497,159.639 C 205.785,159.912 204.984,159.768 204.717,159.318M 214.460,132.725 C 215.931,129.626 215.862,129 213.186,121.035 C 210.488,113.006 208,109.551 208,113.833 C 208,114.933 207.438,116.021 206.750,116.250 C 205.598,116.634 207.416,123.942 211.104,133.750 C 212.222,136.724 212.620,136.603 214.460,132.725" stroke="#E2A9EF" fill="#E2A9EF" stroke-width="1"/>
  <path id="18" d="M 263.449,388.727 C 263.180,388.027 263.082,377.340 263.230,364.977 C 263.230,364.977 263.500,342.500 263.500,342.500 C 263.500,342.500 270,342.500 270,342.500 C 270,342.500 276.500,342.500 276.500,342.500 C 276.500,342.500 276.768,366.250 276.768,366.250 C 276.768,366.250 277.036,390 277.036,390 C 277.036,390 270.487,390 270.487,390 C 266.108,390 263.776,389.578 263.449,388.727" stroke="#E2A9EF" fill="#E2A9EF" stroke-width="1"/>
  <path id="18" d="M 328.883,189.861 C 328.883,189.861 324.578,184.718 324.578,184.718 C 324.578,184.718 330.445,179.258 330.445,179.258 C 334.692,175.305 336.374,172.993 336.540,170.886 C 336.666,169.285 336.397,167.746 335.943,167.465 C 335.489,167.184 331.851,169.895 327.860,173.490 C 327.860,173.490 320.603,180.027 320.603,180.027 C 320.603,180.027 316.301,175.805 316.301,175.805 C 313.935,173.483 312,171.044 312,170.385 C 312,169.726 319.717,162.305 329.150,153.895 C 329.150,153.895 346.301,138.604 346.301,138.604 C 346.301,138.604 355.043,148.046 355.043,148.046 C 355.043,148.046 363.785,157.489 363.785,157.489 C 363.785,157.489 363.532,162.946 363.532,162.946 C 363.294,168.082 363.001,168.644 358.577,172.482 C 353.202,177.145 350.240,177.514 343.560,176.067 C 347.346,180.251 346.382,183.421 339.477,189.483 C 339.477,189.483 333.189,195.003 333.189,195.003 C 333.189,195.003 328.883,189.861 328.883,189.861M 354.237,154.838 C 354.473,153.228 354.290,151.679 353.830,151.395 C 353.370,151.111 349.643,153.912 345.549,157.620 C 338.512,163.993 336.889,166.805 341,165.500 C 342.007,165.180 343.148,165.430 343.534,166.055 C 344.640,167.845 353.725,158.324 354.237,154.838" stroke="#E2A9EF" fill="#E2A9EF" stroke-width="1"/>
  <path id="26" d="M 279.626,287.366 C 277.208,284.049 273.620,282.603 259.799,279.376 C 253.252,277.848 245.766,275.316 242,273.357 C 238.078,271.317 233.171,269.683 229.628,269.238 C 223.804,268.506 223.742,268.463 221.997,264 C 221.997,264 220.237,259.500 220.237,259.500 C 220.237,259.500 236.868,259 236.868,259 C 252.666,258.525 253.500,258.400 253.500,256.500 C 253.500,254.588 252.743,254.488 236.361,254.227 C 217.216,253.922 218.048,254.283 218.014,246.250 C 218.014,246.250 218,243 218,243 C 218,243 269.052,243 269.052,243 C 269.052,243 320.105,243 320.105,243 C 320.105,243 319.802,248.250 319.802,248.250 C 319.802,248.250 319.500,253.500 319.500,253.500 C 319.500,253.500 301.183,253.773 301.183,253.773 C 282.884,254.046 282.867,254.048 283.183,256.273 C 283.495,258.465 283.771,258.504 300.726,258.773 C 300.726,258.773 317.952,259.047 317.952,259.047 C 317.952,259.047 315.897,264.273 315.897,264.273 C 312.978,271.696 310.116,276 308.097,276 C 304.007,276 297.031,279.397 290.617,284.511 C 286.831,287.530 283.231,289.986 282.617,289.969 C 282.003,289.952 280.657,288.780 279.626,287.366M 273.315,257.622 C 274.144,255.462 271.942,254 267.859,254 C 263.908,254 262.459,255.148 263.380,257.548 C 264.127,259.495 272.572,259.558 273.315,257.622" stroke="#F9BDBF" fill="#F9BDBF" stroke-width="1"/>
  <path id="26" d="M 249.538,232.593 C 250.132,228.631 249.785,227.487 246.100,221.284 C 240.832,212.417 240.525,207.321 244.989,202.857 C 248.752,199.094 250.116,199.872 249.365,205.353 C 248.852,209.098 249.242,210.339 252.558,215.523 C 255.132,219.547 256.480,222.937 256.790,226.168 C 257.198,230.417 256.930,231.224 254.200,233.954 C 249.891,238.263 248.738,237.927 249.538,232.593" stroke="#F9BDBF" fill="#F9BDBF" stroke-width="1"/>
  <path id="26" d="M 267.615,236.186 C 267.336,235.735 267.760,233.473 268.557,231.159 C 270.275,226.173 269.619,224.085 263.232,214.224 C 256.755,204.224 256.801,197.134 263.384,191.063 C 266.989,187.738 268.578,189.372 266.523,194.291 C 265.685,196.296 265,198.551 265,199.303 C 265,200.055 267.196,204.284 269.879,208.702 C 277.652,221.500 278.497,226.555 273.853,232.459 C 271.491,235.462 268.334,237.349 267.615,236.186" stroke="#F9BDBF" fill="#F9BDBF" stroke-width="1"/>
  <path id="26" d="M 207.731,228.697 C 195.224,219.985 193.334,217.498 196.536,213.960 C 199.145,211.077 202.253,211.550 207.673,215.656 C 224.533,228.428 233,235.251 233,236.066 C 233,236.580 229.962,236.976 226.250,236.947 C 226.250,236.947 219.500,236.894 219.500,236.894 C 219.500,236.894 207.731,228.697 207.731,228.697" stroke="#F9BDBF" fill="#F9BDBF" stroke-width="1"/>
  <path id="27" d="M 343.534,166.055 C 343.148,165.430 342.007,165.180 341,165.500 C 336.889,166.805 338.512,163.993 345.549,157.620 C 349.643,153.912 353.370,151.111 353.830,151.395 C 354.290,151.679 354.473,153.228 354.237,154.838 C 353.725,158.324 344.640,167.845 343.534,166.055" stroke="#895559" fill="#895559" stroke-width="1"/>
  <path id="27" d="M 292.564,156.104 C 291.740,154.770 308.988,120 310.474,120 C 311.176,120 312.019,121.345 312.348,122.989 C 313.186,127.180 299.758,155 296.897,155 C 295.854,155 295,155.450 295,156 C 295,157.243 293.313,157.315 292.564,156.104" stroke="#895559" fill="#895559" stroke-width="1"/>
  <path id="27" d="M 263.380,257.548 C 262.459,255.148 263.908,254 267.859,254 C 271.942,254 274.144,255.462 273.315,257.622 C 272.572,259.558 264.127,259.495 263.380,257.548" stroke="#895559" fill="#895559" stroke-width="1"/>
  <path id="27" d="M 236.439,364.444 C 235.357,357.231 236.357,350.643 238.921,348.079 C 240.156,346.844 241.462,346.129 241.824,346.491 C 242.186,346.853 242.467,351.052 242.448,355.824 C 242.420,362.918 242.063,364.910 240.485,366.750 C 237.764,369.923 237.214,369.609 236.439,364.444" stroke="#895559" fill="#895559" stroke-width="1"/>
  <path id="27" d="M 211.104,133.750 C 207.416,123.942 205.598,116.634 206.750,116.250 C 207.438,116.021 208,114.933 208,113.833 C 208,109.551 210.488,113.006 213.186,121.035 C 215.862,129 215.931,129.626 214.460,132.725 C 212.620,136.603 212.222,136.724 211.104,133.750" stroke="#895559" fill="#895559" stroke-width="1"/>
  <path id="26" d="M 287.676,236.343 C 287.345,236.012 287.323,233.886 287.628,231.620 C 288.101,228.108 287.646,226.614 284.551,221.500 C 282.554,218.200 280.663,214.484 280.350,213.243 C 279.381,209.406 280.923,204.205 283.672,202.043 C 287.570,198.977 288.311,199.442 287.556,204.478 C 286.950,208.521 287.278,209.619 290.942,215.786 C 296.969,225.932 296.484,232.353 289.389,236.324 C 288.778,236.666 288.007,236.674 287.676,236.343" stroke="#F9BDBF" fill="#F9BDBF" stroke-width="1"/>
  <path id="18" d="M 252.066,150.255 C 246.743,149.957 245.229,149.461 243.303,147.382 C 243.303,147.382 240.975,144.870 240.975,144.870 C 240.975,144.870 242.480,125.685 242.480,125.685 C 243.308,115.133 243.989,105.425 243.993,104.112 C 244,101.764 244.112,101.735 250.717,102.412 C 254.411,102.790 257.552,103.219 257.697,103.364 C 257.842,103.509 257.304,111.924 256.501,122.064 C 254.359,149.106 254.416,149.584 259.176,144.824 C 261.100,142.900 261.498,140.790 262.619,126.574 C 263.316,117.733 263.912,109.037 263.943,107.250 C 263.943,107.250 264,104 264,104 C 264,104 270.441,104 270.441,104 C 273.984,104 277.111,104.370 277.390,104.822 C 277.669,105.274 277.402,112.811 276.798,121.572 C 275.830,135.600 275.449,137.744 273.600,139.551 C 272.445,140.679 270.712,141.903 269.750,142.270 C 268.292,144.182 265.333,145.637 265,145.989 C 265,147.723 261.612,151.007 260.028,150.807 C 259.188,150.701 255.605,150.453 252.066,150.255" stroke="#E2A9EF" fill="#E2A9EF" stroke-width="1"/>
</svg>